# Blender v2.79 (sub 0) OBJ File: ''
# www.blender.org
mtllib room.mtl
o Cube_Cube.001
v -7.298995 0.500264 -5.233158
v -7.298995 2.500264 -5.233158
v -7.298995 0.500264 -7.233158
v -7.298995 2.500264 -7.233158
v -5.298995 0.500264 -5.233158
v -5.298995 2.500264 -5.233158
v -5.298995 0.500264 -7.233158
v -5.298995 2.500264 -7.233158
v -7.298995 0.500264 7.362659
v -7.298995 2.500264 7.362659
v -5.298995 2.500264 7.362659
v -5.298995 0.500264 7.362659
v 7.485974 2.500264 -7.233158
v 7.485974 0.500264 -7.233158
v 7.485974 0.500264 -5.233158
v 7.485974 2.500264 -5.233158
v -7.298995 8.500713 -5.233158
v -7.298995 8.500713 -7.233158
v -5.298995 8.500713 -7.233158
v -5.298995 8.500713 -5.233158
v -5.298995 8.500713 7.362659
v -7.298995 8.500713 7.362659
v 7.485974 8.500713 -7.233158
v 7.485974 8.500713 -5.233158
v -7.298995 8.766040 -5.233158
v -7.298995 8.766040 -7.233158
v -5.298995 8.766040 -7.233158
v -5.298995 8.766040 -5.233158
v -5.298995 8.766040 7.362659
v -7.298995 8.766040 7.362659
v 7.485974 8.766040 -7.233158
v 7.485974 8.766040 -5.233158
v 6.970656 8.500713 7.064528
v 5.323030 8.500713 5.388867
v 6.943898 8.500713 7.077148
v 6.970656 8.766040 7.064528
v 5.323030 8.766040 5.388867
v 6.991811 8.741535 7.085661
v -7.298995 0.317526 -7.233158
v -7.298995 0.317526 -5.233158
v -5.298995 0.317526 -7.233158
v -5.298995 0.317526 -5.233158
v -7.298995 0.317526 7.362659
v -5.298995 0.317526 7.362659
v 7.485974 0.317526 -5.233158
v 7.485974 0.317526 -7.233158
v 6.908119 0.500264 7.427435
v 1.303715 0.500264 1.369552
v 6.945189 0.500264 7.437944
v 6.908119 0.317526 7.427435
v 1.303715 0.317526 1.369552
v 6.945189 0.317526 7.437944
v -7.298995 1.371305 -5.233158
v -7.298995 1.371305 -7.233158
v -5.298995 1.371305 -7.233158
v -5.298995 1.371305 -5.233158
v -7.298995 1.371305 7.362659
v -5.298995 1.371305 7.362659
v 7.485974 1.371305 -7.233158
v 7.485974 1.371305 -5.233158
v -5.298995 1.371305 -5.233158
v -5.298995 0.500264 -5.233158
v -5.298995 1.371305 7.362659
v -5.298995 0.500264 7.362659
v 7.485974 1.371305 -5.233158
v 7.485974 0.500264 -5.233158
v -5.298995 1.371305 -5.230191
v -4.833192 0.500264 -4.904198
v 7.485974 1.371305 -5.230191
v 7.485974 0.500264 -4.904198
v -5.322568 1.371305 -5.233158
v -4.857568 0.500264 -5.233158
v -5.322568 1.371305 7.362659
v -4.857568 0.500264 7.362659
vn -1.0000 0.0000 0.0000
vn 0.0000 0.0000 -1.0000
vn 0.0000 0.0000 1.0000
vn 0.0000 -1.0000 0.0000
vn 1.0000 0.0000 0.0000
vn 0.0000 1.0000 0.0000
vn 0.0243 0.0000 0.9997
vn -0.7158 0.0561 0.6960
vn 0.7130 0.0000 -0.7011
vn 0.9946 -0.0949 0.0418
vn 0.0017 1.0000 0.0003
vn -0.7324 0.0000 0.6809
vn 0.7340 0.0000 -0.6791
vn -0.0053 0.0000 1.0000
vn 0.9991 0.0000 0.0426
vn -0.5803 -0.0028 0.8144
vn 0.0000 0.3505 0.9366
vn 0.8822 0.4709 0.0000
usemtl None
s off
f 53//1 2//1 4//1 54//1
f 54//2 4//2 8//2 55//2
f 5//3 15//3 66//3 62//3
f 13//2 8//2 19//2 23//2
f 44//4 42//4 51//4 50//4
f 16//5 13//5 23//5 24//5
f 58//3 11//3 10//3 57//3
f 56//5 6//5 11//5 58//5
f 53//1 1//1 9//1 57//1
f 3//2 7//2 41//2 39//2
f 59//5 13//5 16//5 60//5
f 7//2 14//2 46//2 41//2
f 4//1 2//1 17//1 18//1
f 55//2 8//2 13//2 59//2
f 17//1 22//1 30//1 25//1
f 24//5 23//5 31//5 32//5
f 23//2 19//2 27//2 31//2
f 8//2 4//2 18//2 19//2
f 2//1 10//1 22//1 17//1
f 6//3 16//3 24//3 20//3
f 11//5 6//5 20//5 21//5
f 10//3 11//3 21//3 22//3
f 28//6 25//6 30//6 29//6
f 27//6 26//6 25//6 28//6
f 27//6 28//6 32//6 31//6
f 19//2 18//2 26//2 27//2
f 20//4 24//4 35//4 34//4
f 29//7 21//7 33//7 36//7
f 22//3 21//3 29//3 30//3
f 18//1 17//1 25//1 26//1
f 34//8 35//8 38//8 37//8
f 33//9 34//9 37//9 36//9
f 21//4 20//4 34//4 33//4
f 24//10 32//10 38//10 35//10
f 32//11 28//11 37//11 38//11
f 28//6 29//6 36//6 37//6
f 39//4 41//4 42//4 40//4
f 40//4 42//4 44//4 43//4
f 42//4 41//4 46//4 45//4
f 1//1 3//1 39//1 40//1
f 15//6 5//6 48//6 49//6
f 12//3 9//3 43//3 44//3
f 14//5 15//5 45//5 46//5
f 9//1 1//1 40//1 43//1
f 49//12 48//12 51//12 52//12
f 48//13 47//13 50//13 51//13
f 12//14 44//14 50//14 47//14
f 45//15 15//15 49//15 52//15
f 5//6 12//6 47//6 48//6
f 42//4 45//4 52//4 51//4
f 7//2 55//2 59//2 14//2
f 14//5 59//5 60//5 15//5
f 2//1 53//1 57//1 10//1
f 58//3 12//3 64//3 63//3
f 12//3 58//3 57//3 9//3
f 6//3 56//3 60//3 16//3
f 3//2 54//2 55//2 7//2
f 1//1 53//1 54//1 3//1
f 61//16 62//16 68//16 67//16
f 64//4 62//4 72//4 74//4
f 12//3 5//3 62//3 64//3
f 60//3 56//3 61//3 65//3
f 56//3 58//3 63//3 61//3
f 15//3 60//3 65//3 66//3
f 67//17 68//17 70//17 69//17
f 66//5 65//5 69//5 70//5
f 65//6 61//6 67//6 69//6
f 62//4 66//4 70//4 68//4
f 72//18 71//18 73//18 74//18
f 62//2 61//2 71//2 72//2
f 61//4 63//4 73//4 71//4
f 63//3 64//3 74//3 73//3
